<?xml version="1.0" standalone="no"?>
<!DOCTYPE svg PUBLIC "-//W3C//DTD SVG 1.1//EN" "http://www.w3.org/Graphics/SVG/1.1/DTD/svg11.dtd" >
<svg xmlns="http://www.w3.org/2000/svg" xmlns:xlink="http://www.w3.org/1999/xlink" version="1.1">
<metadata></metadata>
<defs>
<font id="risparegular" horiz-adv-x="647" >
<font-face units-per-em="2048" ascent="1536" descent="-512" />
<missing-glyph horiz-adv-x="612" />
<glyph horiz-adv-x="0" />
<glyph horiz-adv-x="682" />
<glyph horiz-adv-x="0" />
<glyph horiz-adv-x="0" />
<glyph unicode="&#xd;" horiz-adv-x="1024" />
<glyph unicode=" "  horiz-adv-x="612" />
<glyph unicode="&#x09;" horiz-adv-x="612" />
<glyph unicode="&#xa0;" horiz-adv-x="612" />
<glyph unicode="!" horiz-adv-x="315" d="M76 70q0 35 24 60.5t58 25.5t58 -25.5t24 -60.5q0 -37 -24 -62.5t-58 -25.5t-58 25.5t-24 62.5zM102 395v1671h109v-1671h-109z" />
<glyph unicode="&#x22;" horiz-adv-x="643" d="M125 1892l25 21q43 35 63 90q-31 24 -31 68q0 32 18.5 53.5t45.5 21.5q20 0 33 -10q13 -13 16 -18q16 -31 18 -53q8 -78 -67 -160l-10 -13h-111zM309 1892l25 21q42 35 65 90q-32 22 -32 68q0 32 18.5 53.5t44.5 21.5q20 0 33 -10q9 -6 16 -18q3 -3 8 -12t9.5 -29.5 t2 -44.5t-19.5 -58t-49 -69l-8 -13h-113z" />
<glyph unicode="#" horiz-adv-x="839" d="M78 950l33 109h145l20 74h-145l33 108h143l60 189h114l-61 -189h80l59 189h113l-60 -189h148l-33 -108h-145l-21 -74h146l-33 -109h-146l-51 -170h-112l51 170h-78l-53 -170h-113l51 170h-145zM369 1059h77l21 74h-78z" />
<glyph unicode="$" horiz-adv-x="600" d="M92 1595q0 194 164 303v150h109v-96l20 6l55 16v-112l-30 -9l-45 -18v-588l14 -22q41 -65 61.5 -102t47.5 -98.5t39 -127t12 -141.5q0 -75 -12 -140.5t-38 -125.5t-48 -99.5t-61 -102.5l-15 -24v-264h-109v113q-11 -14 -27 -32t-18 -20l-76 -79v159l12 13q48 51 109 141 v922q-21 32 -23 34q-49 78 -73 120t-46 105t-22 119zM201 1595q0 -70 55 -168v328q-55 -64 -55 -160zM365 516q65 116 65 240q0 73 -16.5 152t-48.5 122v-514z" />
<glyph unicode="%" horiz-adv-x="1038" d="M27 1548q0 80 52.5 137.5t127.5 57.5q73 0 125.5 -57.5t52.5 -137.5q0 -82 -52 -139t-126 -57q-75 0 -127.5 57t-52.5 139zM135 1548q0 -37 21.5 -62.5t50.5 -25.5t49 25.5t20 62.5q0 36 -20 61t-49 25t-50.5 -25.5t-21.5 -60.5zM332 0l280 2048h111l-281 -2048h-110z M653 643q0 82 53 139.5t128 57.5q74 0 126 -57.5t52 -139.5t-52 -139.5t-126 -57.5q-75 0 -128 57.5t-53 139.5zM762 643q0 -35 21.5 -61.5t50.5 -26.5t49 26t20 62q0 37 -20 62.5t-49 25.5t-50.5 -25.5t-21.5 -62.5z" />
<glyph unicode="&#x26;" horiz-adv-x="1898" d="M80 262v109q7 0 18 1t39 7t54 17t58.5 34t57.5 55q-68 179 -70 373.5t66 360.5q36 88 85.5 161.5t94.5 118.5t95.5 81t81 51t59.5 26l84 258q8 28 22.5 55.5t38 53.5t59 37t76.5 1q70 -19 86 -90q8 -46 -14.5 -96t-66.5 -82q-63 -45 -136 -29q-367 -1112 -409 -1228 q-9 -26 -29 -62q21 -47 59 -106q32 -50 72.5 -92t97 -82t132 -63t161.5 -23q120 0 216.5 34.5t156.5 88t101 124.5t58.5 137t20.5 132q-56 39 -139 39q-59 0 -106.5 -16.5t-68 -32.5t-32.5 -33v139q86 53 207 53q53 0 95.5 -10.5t63.5 -21.5t50 -31q26 -17 40.5 -24.5 t47 -15t74.5 -7.5q96 0 129 104v-174q-56 -39 -129 -39q-75 0 -125 16q-10 -89 -41 -170.5t-86.5 -155t-129.5 -128t-178 -86t-225 -31.5q-169 0 -312 80t-243 229q-25 40 -39 68q-33 -32 -74 -56t-72.5 -34.5t-65 -17t-45.5 -7t-21 -0.5zM346 911q-7 -146 29 -282 q68 194 295 882q-176 -112 -267 -333q-50 -121 -57 -267zM903 1870q32 3 49 24q17 17 23 36.5t2 25.5h-4q-1 0 -3 1t-3 1q-11 0 -21 -7.5t-16.5 -18t-11.5 -21t-8 -17.5l-3 -8v-4q-2 -4 -4 -12z" />
<glyph unicode="'" horiz-adv-x="364" d="M82 1892l24 21q44 35 64 90q-31 24 -31 68q0 32 18.5 53.5t45.5 21.5q20 0 33 -10q13 -13 16 -18q16 -31 18 -53q8 -78 -67 -160l-10 -13h-111z" />
<glyph unicode="(" horiz-adv-x="466" d="M68 1028q0 691 161 997q17 35 37 70t32 53l11 17v-221l-2 -9q-131 -304 -131 -907q0 -175 11 -323t24.5 -236.5t37 -171t35 -112t31.5 -74.5l4 -9v-221q-50 81 -81 142q-170 322 -170 1005z" />
<glyph unicode=")" horiz-adv-x="471" d="M154 102l4 9q21 49 31 75t34 111t36.5 172t24 236t11.5 323q0 607 -129 907l-4 9v221q43 -62 82 -140q162 -308 162 -997q0 -683 -170 -1005l-82 -142v221z" />
<glyph unicode="*" horiz-adv-x="608" d="M88 1776v88h172v184h86v-184h178v-88h-137l115 -164h-107l-92 131l-92 -131h-107l115 164h-131z" />
<glyph unicode="+" horiz-adv-x="397" d="M55 1042v109h88v229h109v-229h86v-109h-86v-249h-109v249h-88z" />
<glyph unicode="," horiz-adv-x="360" d="M82 -109l24 21q43 35 66 90q-33 23 -33 68q0 31 19 53t45 22q20 0 33 -10l16 -18q16 -31 18 -53q8 -79 -67 -162l-10 -11h-111z" />
<glyph unicode="-" d="M190 1036v109h273v-109h-273z" />
<glyph unicode="." horiz-adv-x="450" d="M133 102q0 43 27 74t65 31t65 -31t27 -74q0 -42 -27 -72t-65 -30t-65 30t-27 72z" />
<glyph unicode="/" horiz-adv-x="444" d="M29 0l278 2048h111l-279 -2048h-110z" />
<glyph unicode="0" horiz-adv-x="2056" d="M137 1042q0 242 63 435.5t179.5 323t281.5 198.5t367 69t367 -69t281.5 -198.5t179.5 -323t63 -435.5q0 -319 -109.5 -559.5t-311.5 -370.5t-470 -130t-470 130t-311.5 370.5t-109.5 559.5zM248 1042q0 -286 95.5 -501.5t272.5 -332t412 -116.5q356 0 569 258.5 t213 691.5q0 434 -210.5 676t-571.5 242q-360 0 -570 -241.5t-210 -676.5z" />
<glyph unicode="1" horiz-adv-x="614" d="M0 1487l430 579v-2066h-108v1737l-187 -250h-135z" />
<glyph unicode="2" horiz-adv-x="1785" d="M14 0l377 106l4 1q256 81 486 227q419 264 520 619q31 108 31 223q0 474 -373 667q-83 42 -177.5 66t-147.5 27l-54 3h-45v109h45q15 0 38 -1t82 -10t117 -23.5t134 -45.5t141.5 -73t131 -110t112 -151t75.5 -201.5t29 -256.5q0 -120 -30 -233t-79 -204t-119.5 -176.5 t-144 -150.5t-160.5 -124.5t-160.5 -100.5t-152.5 -78h1010v-109h-1690z" />
<glyph unicode="3" horiz-adv-x="583" d="M47 1610q9 0 76 11.5t92 20.5q66 26 66 134q0 36 -12.5 65.5t-30 46.5t-34.5 28t-30 15l-12 4v113q5 0 13 -1.5t31.5 -9t45 -18t48 -31.5t45 -48.5t31.5 -70t13 -93.5q0 -117 -70 -187q32 -34 51 -57t49 -77t47 -113.5t30.5 -158.5t13.5 -220q0 -221 -48 -394t-118 -288 q-48 -81 -107.5 -151t-94.5 -100l-36 -30v158l13 12q28 27 56 61t71.5 107t75.5 155.5t55.5 207.5t23.5 262q0 228 -54 370.5t-142 206.5q-13 10 -33 20t-40.5 18.5t-37.5 15t-31.5 11.5t-15.5 5z" />
<glyph unicode="4" horiz-adv-x="579" d="M0 588l397 1480v-2068h-108v588h-289zM141 696h148v521z" />
<glyph unicode="5" horiz-adv-x="598" d="M156 -18v139l14 12q68 64 118.5 162t76.5 190t41 198.5t18.5 170t3.5 121.5q0 99 -13 185t-33 145t-46.5 108t-50 77.5t-47.5 49.5t-35.5 28t-16.5 9l-30 14v457h370v-109h-262v-280q30 -19 59 -46t70 -85t71 -128.5t51.5 -182.5t21.5 -242q0 -151 -17.5 -284.5 t-47.5 -228.5t-62.5 -169.5t-71 -127t-63 -80t-48.5 -46.5z" />
<glyph unicode="6" horiz-adv-x="602" d="M184 322v1726h109q0 -855 2 -1356q81 18 143 -18q47 -27 78.5 -80.5t43.5 -113t16 -94t4 -56.5q2 -75 -15 -162.5t-69 -138.5q-44 -47 -113 -47q-28 0 -54 8t-53 31.5t-47 60t-32.5 98.5t-12.5 142zM295 578q0 -196 2 -259q7 -229 86 -229q23 0 37 14q27 28 40 94t11 132 q0 70 -23 147.5t-65 102.5q-33 20 -88 -2z" />
<glyph unicode="7" horiz-adv-x="1112" d="M35 0l272 588h-188v108h237l576 1243h-580v109h750l-625 -1352h197v-108h-248l-270 -588h-121z" />
<glyph unicode="8" horiz-adv-x="759" d="M150 721v153t1.5 138.5t4 137t7.5 117.5t13 112t19 88t27 80t36 55q-34 34 -55 94.5t-21 120.5q0 104 57.5 177.5t139.5 73.5q80 0 137 -73.5t57 -177.5q0 -60 -20 -120t-53 -93q68 -80 93 -293.5t25 -589.5q0 -111 -5.5 -207.5t-21.5 -197.5t-41 -172t-68 -116.5 t-99 -45.5q-29 0 -54.5 12.5t-53 42.5t-49 85.5t-39.5 134.5t-27.5 197.5t-9.5 266.5zM258 721q0 -136 9 -248t23 -181t31.5 -116.5t33 -66.5t28.5 -19t28.5 19t33 66.5t31.5 116.5t23 181t9 248q0 827 -125 827q-44 0 -71.5 -67.5t-38 -212.5t-13 -249t-2.5 -298zM291 1817 q0 -56 26.5 -99t61.5 -43q34 0 60 43t26 99q0 57 -26 99t-60 42q-35 0 -61.5 -42t-26.5 -99z" />
<glyph unicode="9" horiz-adv-x="655" d="M90 1718q0 348 199 348q28 0 53 -8t51 -30.5t45 -59t32 -98t15 -141.5q2 -182 2 -838v-469q0 -87 -21.5 -162t-52.5 -120.5t-62.5 -79t-52.5 -46.5l-22 -14v143l13 13q88 95 88 266q0 166 2 258q-39 -18 -76 -18q-34 0 -65 11t-65 40.5t-56 94t-25 157.5q-2 92 -2 753z M199.5 1154.5q0.5 -123.5 1.5 -185.5q1 -47 7.5 -83.5t16.5 -57t19.5 -33.5t22.5 -18t19.5 -6t16.5 -1q6 0 12.5 1.5t18.5 8.5t21 19t16 35.5t8 54.5q0 655 -4 837q0 33 -3.5 67t-11.5 74t-26.5 65.5t-44.5 25.5q-29 0 -48 -28t-27 -73t-10.5 -76.5t-2.5 -62.5 q0 -11 -0.5 -116.5t-1 -214.5t0 -232.5z" />
<glyph unicode=":" horiz-adv-x="428" d="M145 948q0 32 20.5 55t51.5 23q29 0 49.5 -23t20.5 -55q0 -31 -20.5 -53.5t-49.5 -22.5q-30 0 -51 22.5t-21 53.5zM145 1233q0 31 21 53.5t51 22.5q29 0 49.5 -22.5t20.5 -53.5q0 -32 -20.5 -55t-49.5 -23q-31 0 -51.5 23t-20.5 55z" />
<glyph unicode=";" horiz-adv-x="362" d="M72 823l24 19q44 35 64 92q-31 21 -31 65q0 32 19 54t45 22q22 0 32 -10l7 -5q6 -6 10 -11q16 -31 18 -53q7 -79 -67 -162l-11 -11h-110zM121 1280q0 32 20 54t49 22q31 0 51.5 -22t20.5 -54q0 -31 -21 -53.5t-51 -22.5q-29 0 -49 22.5t-20 53.5z" />
<glyph unicode="&#x3c;" horiz-adv-x="391" d="M2 1090l221 315v-188l-88 -127l88 -125v-189z" />
<glyph unicode="=" horiz-adv-x="780" d="M190 926v108h404v-108h-404zM190 1133v108h404v-108h-404z" />
<glyph unicode="&#x3e;" horiz-adv-x="413" d="M190 776v189l89 125l-89 127v188l222 -315z" />
<glyph unicode="?" horiz-adv-x="804" d="M55 88q0 35 24 60.5t58 25.5t58 -25.5t24 -60.5q0 -37 -24 -62.5t-58 -25.5t-58 25.5t-24 62.5zM82 371v368l47 9q7 0 42.5 8t107 34.5t133.5 63.5q270 159 270 461q0 281 -244 469q-59 45 -130.5 83t-111.5 53t-71 24l-31 10v112q9 -2 24.5 -5.5t63 -19t93.5 -35 t109 -53.5t117 -74.5t109 -99t93.5 -124.5t63 -154t24.5 -186q0 -99 -26.5 -187t-67 -150.5t-98.5 -116.5t-112 -87.5t-116 -61.5t-102 -41t-79 -22v-278h-108z" />
<glyph unicode="@" horiz-adv-x="1878" d="M131 799q0 172 63 323.5t171.5 260t261 171t325.5 62.5q365 0 584 -218.5t219 -582.5q0 -233 -156 -448l-16 -23h-422l-96 299h-252l-90 -301l-105 31l314 1044l309 -964h287q117 171 117 362q0 320 -186 505t-507 185q-150 0 -282 -54t-226.5 -147.5t-149 -224.5 t-54.5 -280t54.5 -280.5t149 -225.5t226.5 -148.5t282 -54.5q213 0 394 105l38 22l56 -94l-39 -23q-204 -118 -449 -118q-173 0 -325.5 62.5t-261 170.5t-171.5 260t-63 324zM846 752h184l-96 299z" />
<glyph unicode="A" horiz-adv-x="1644" d="M63 0l750 2052l772 -2052h-117l-213 592h-870l-207 -592h-115zM422 700h795l-402 1061z" />
<glyph unicode="B" horiz-adv-x="708" d="M193 0v2048h51q4 0 12 -1t30 -7.5t43 -17.5t48.5 -33.5t48.5 -53.5q81 -110 125.5 -277.5t44.5 -361.5q0 -151 -21.5 -289.5t-42.5 -207.5t-45 -123q86 -73 86 -262q0 -82 -16.5 -149t-41.5 -109t-59.5 -73t-64.5 -46.5t-63 -24.5t-49.5 -10.5t-28.5 -1.5h-57zM301 117 q29 9 54 26t52 49t42.5 89.5t15.5 132.5q0 148 -66 188q-7 4 -24 8.5t-30 7.5l-13 3q31 45 39 61q5 9 12.5 26t27.5 76t35.5 125t28 171t12.5 216q0 153 -18.5 271t-49 186.5t-59 106t-59.5 57.5v-1800z" />
<glyph unicode="C" horiz-adv-x="1470" d="M100 1022q0 207 81 397t218 327.5t326.5 219.5t396.5 82h23l43 -2l-2 -109l-43 2h-21q-186 0 -355 -73t-291 -196t-194.5 -292.5t-72.5 -355.5q0 -190 62 -357t178 -290q123 -130 294.5 -198t378.5 -68q63 0 128 19.5t112 53.5l68 49v-135l-19 -12q-130 -84 -289 -84 q-230 0 -421.5 76.5t-331.5 224.5q-129 137 -199 323t-70 398z" />
<glyph unicode="D" horiz-adv-x="1611" d="M180 0v2048h318q207 0 395.5 -81t324.5 -217t217 -324.5t81 -395.5q0 -210 -81 -400.5t-217 -328.5t-324.5 -219.5t-395.5 -81.5h-318zM289 109h209q185 0 353.5 73t290 196.5t193.5 294t72 357.5q0 185 -72 353.5t-193.5 290t-290 193.5t-353.5 72h-209v-1830z" />
<glyph unicode="E" horiz-adv-x="1695" d="M100 539v145q93 78 240 78h12v1286h1209v-109h-1100v-1191q89 -25 190 -101q32 -23 45.5 -31.5t36.5 -18t43 -9.5q48 0 98 31t76 59.5t43 54.5v-133q-102 -98 -217 -98q-33 0 -66.5 12.5t-53 25t-56.5 38.5q-83 59 -139 77v-546h1231v-109h-1340v676h-12 q-52 0 -94.5 -12.5t-67 -28.5t-43.5 -38t-25 -34.5t-10 -23.5z" />
<glyph unicode="F" horiz-adv-x="552" d="M182 0v2048h371v-109h-262v-1243h131v-108h-131v-588h-109z" />
<glyph unicode="G" horiz-adv-x="1525" d="M115 1022q0 265 106.5 483.5t300.5 357.5t447 177l51 8v-111l-37 -6q-225 -34 -398 -158t-267.5 -319t-94.5 -432q0 -284 79 -494t229.5 -324t357.5 -114q16 0 40.5 3t70 15t89.5 31.5t93 57.5t87 88.5t65 129t32 173.5h-401v108h512v-53q0 -341 -209 -514 q-91 -76 -196.5 -111.5t-182.5 -35.5q-240 0 -415 126.5t-267 361t-92 552.5z" />
<glyph unicode="H" horiz-adv-x="1730" d="M190 0v2048h109v-1352h1133v1352h110v-2048h-110v588h-1133v-588h-109z" />
<glyph unicode="I" horiz-adv-x="460" d="M182 0v2046h109v-2046h-109z" />
<glyph unicode="J" horiz-adv-x="1576" d="M25 692l67 4h41l4 -39q0 -11 4 -38t19 -80t38.5 -107.5t70 -113.5t106.5 -104.5t153.5 -75t206.5 -29.5q349 0 492 270q32 60 51 131.5t22 101.5t3 43v52v1232h-981v109h1089v-43v-37v-99.5t0.5 -144t0.5 -177.5v-195.5v-202v-192t-0.5 -170.5t-0.5 -134q0 -43 -8.5 -94 t-30.5 -115t-54.5 -124.5t-86.5 -119.5t-121.5 -102.5t-164.5 -70.5t-210 -27q-128 0 -235.5 34.5t-177 82t-126 121.5t-84.5 128.5t-50 128.5t-26 95.5t-8 54.5l-1 4z" />
<glyph unicode="K" horiz-adv-x="1599" d="M184 0v2048h109v-362l676 315v-119l-213 -100q49 -34 99 -78t119 -123.5t131.5 -174t130.5 -234t121.5 -299t98.5 -373.5t68 -453l4 -47h-109l-4 39q-20 205 -56 390.5t-79 328t-97.5 270t-106.5 218.5t-110.5 170t-105 128.5t-95 91t-75.5 59.5t-51 31l-346 -161v-1565 h-109z" />
<glyph unicode="L" horiz-adv-x="1536" d="M184 0v2048h109v-1939h1243v-109h-1352z" />
<glyph unicode="M" horiz-adv-x="1728" d="M115 0l6 49l315 2099l424 -1822l402 1820l358 -2146h-109l-264 1567l-383 -1743l-405 1741l-236 -1565h-108z" />
<glyph unicode="N" horiz-adv-x="1691" d="M164 0v2146l1241 -1939v1843h111v-2224l-1244 1946v-1772h-108z" />
<glyph unicode="O" horiz-adv-x="2367" d="M127 1012q0 214 83.5 409.5t225 337t337.5 225.5t411 84q214 0 410 -84t337.5 -225.5t225.5 -337t84 -409.5q0 -215 -84 -406.5t-226 -327.5t-337 -215t-410 -79q-144 0 -281 36t-253 100.5t-213.5 158.5t-165.5 206.5t-106 247.5t-38 279zM236 1012q0 -154 48 -295.5 t135.5 -254t204.5 -196.5t261.5 -129t298.5 -45q193 0 367.5 71t301.5 192.5t202 293t75 363.5t-75 367.5t-201.5 302t-302 201.5t-367.5 75t-367.5 -75t-302.5 -201.5t-202.5 -302t-75.5 -367.5z" />
<glyph unicode="P" horiz-adv-x="1748" d="M102 588v43q0 57 52 95q49 36 106 36h6q38 0 86 -10v1296q48 6 183 6q87 0 173 -5.5t201 -23t215.5 -46t204 -80t178.5 -119.5q197 -179 197 -461q0 -356 -293 -559q-129 -90 -306 -139.5t-368 -49.5q-152 0 -276 31v-602h-109v639q-7 2 -21 6.5t-25 7t-21 2.5 q-72 0 -72 -43l-2 -24h-109zM461 715q116 -35 276 -35q175 0 335.5 44.5t277.5 125.5q245 171 245 469q0 232 -161 381q-69 63 -169.5 110t-196 72t-204.5 40.5t-182 19.5t-143 4q-17 0 -43 -1t-35 -1v-1229z" />
<glyph unicode="Q" horiz-adv-x="2369" d="M117 1038q0 214 83.5 405.5t225.5 327.5t337 215.5t411 79.5q144 0 280.5 -36t252.5 -101t213 -159t165.5 -206.5t106.5 -247.5t38 -278q0 -261 -120 -490t-334 -378q13 -48 16 -68q11 -41 47.5 -77.5t77.5 -40.5h8q70 0 129 116l12 25h121l-30 -64q-87 -186 -232 -186 h-18q-78 7 -139 67.5t-80 133.5q-6 19 -9 35q-234 -129 -505 -129q-215 0 -411 83.5t-337.5 225t-225 337t-83.5 410.5zM225 1038q0 -219 97.5 -416t269.5 -331q21 49 47.5 96.5t77.5 109.5t110 107t147.5 77t188.5 32q414 0 578 -434q179 135 279 334.5t100 424.5 q0 192 -75 363.5t-202 293t-301.5 192.5t-367.5 71t-368 -71t-302.5 -192.5t-203 -293t-75.5 -363.5zM684 227q224 -137 490 -137q252 0 473 127q-67 198 -185.5 292.5t-298.5 94.5q-87 0 -163 -30t-125.5 -71.5t-91.5 -98t-62.5 -96.5t-36.5 -81z" />
<glyph unicode="R" horiz-adv-x="1710" d="M186 0v2048l47 6q111 12 267 12q105 0 208.5 -11t216 -36.5t218 -75t184.5 -118.5q107 -94 168 -230t61 -284q0 -120 -22.5 -222t-62 -174t-81 -121t-90.5 -87q-63 -48 -122 -72q173 -103 273.5 -252t117.5 -330l6 -53h-111l-4 43q-8 81 -36.5 155t-65 127t-85 100.5 t-88 75.5t-82 52t-59.5 31.5t-28 11.5l-209 80l221 26q11 1 29 5t61 21t82.5 42t86.5 72.5t81 108.5t57 154.5t23 205.5q0 125 -51 239.5t-142 192.5q-135 116 -339 165.5t-416 49.5q-115 0 -205 -8v-1950h-109z" />
<glyph unicode="S" horiz-adv-x="1130" d="M53 1806q0 54 21.5 97.5t57 70.5t75.5 43.5t84 22.5l51 8v-111l-37 -6q-18 -2 -37 -7.5t-46 -18.5t-43.5 -38.5t-16.5 -60.5q0 -16 1.5 -27t14.5 -34.5t36.5 -43t73.5 -44t120 -45.5q75 -23 137 -47.5t133.5 -63.5t127 -85t109 -112t88.5 -144t56.5 -182t21.5 -224 q0 -108 -21 -202.5t-57.5 -165t-75.5 -120.5t-85 -90q-92 -83 -208.5 -129.5t-230.5 -46.5h-43v109h43q74 0 151 24t152.5 76t134.5 125.5t95.5 182.5t36.5 237q0 105 -17.5 195t-46.5 157.5t-74 125t-93.5 98t-112 75t-122 57.5t-130.5 45q-168 51 -246 123t-78 176z" />
<glyph unicode="T" horiz-adv-x="1370" d="M20 1939v109h1330v-109h-611v-1939h-108v1939h-611z" />
<glyph unicode="U" horiz-adv-x="1656" d="M164 1016v1032h108v-1032q0 -926 555 -926q96 0 176 29.5t136.5 80t100 123t70.5 151.5t44 174t23.5 183.5t6.5 184.5v1032h109v-1032q0 -507 -169.5 -770.5t-496.5 -263.5q-69 0 -132.5 12t-131.5 44t-124.5 82t-108.5 131t-88 186t-57 253t-21 326z" />
<glyph unicode="V" horiz-adv-x="1615" d="M59 2048h115l633 -1880l635 1880h114l-749 -2222z" />
<glyph unicode="W" horiz-adv-x="1814" d="M117 2048h110l275 -1753l409 1851l385 -1849l295 1751h111l-395 -2222l-400 1782l-420 -1780z" />
<glyph unicode="X" horiz-adv-x="1736" d="M147 0l656 1024l-656 1024h132l589 -922l590 922h131l-655 -1024l655 -1024h-129l-592 924l-592 -924h-129z" />
<glyph unicode="Y" horiz-adv-x="1523" d="M55 2048h119l594 -1305l582 1305h118l-647 -1448v-600h-108v600z" />
<glyph unicode="Z" horiz-adv-x="1562" d="M37 0l1253 1939h-925v109h1124l-1251 -1939h1282v-109h-1483z" />
<glyph unicode="[" horiz-adv-x="468" d="M190 0v2048h250v-109h-141v-1830h141v-109h-250z" />
<glyph unicode="\" horiz-adv-x="444" d="M27 2048h110l279 -2048h-111z" />
<glyph unicode="]" horiz-adv-x="466" d="M33 0v109h141v1830h-141v109h250v-2048h-250z" />
<glyph unicode="^" horiz-adv-x="524" d="M68 1808l194 258l193 -258h-136l-57 76l-59 -76h-135z" />
<glyph unicode="_" horiz-adv-x="735" d="M190 0h359v-109h-359v109z" />
<glyph unicode="`" horiz-adv-x="1705" />
<glyph unicode="a" horiz-adv-x="651" d="M82 0l199 2048h88l202 -2048h-110l-58 588h-155l-58 -588h-108zM258 696h133l-67 684z" />
<glyph unicode="b" horiz-adv-x="770" d="M190 -18v2066h78q98 0 170 -39q137 -78 137 -221q0 -96 -79 -180q31 -38 58.5 -90t59.5 -139t51 -218.5t19 -288.5q0 -454 -199 -700q-100 -125 -223 -168zM299 150q50 36 93 88t87 136t70 212t26 286q0 149 -19.5 276t-43 198t-55 128t-44.5 72.5t-24 24.5 q-23 27 -76 53q61 20 86 39l3 1q3 2 6.5 5t9 7t11 10t11 13t10.5 16.5t9 20t6 24t2 28.5q0 40 -19.5 71t-48 46t-54.5 22.5t-46 7.5v-1785z" />
<glyph unicode="c" horiz-adv-x="552" d="M80 1096q0 638 254 938l12 14h143q-5 -4 -13 -11t-31.5 -30t-44.5 -48t-45.5 -63.5t-41.5 -76.5q-125 -292 -125 -723q0 -427 131 -731q57 -133 123 -218l9 -12v-153q-43 38 -76 73l-2 2q-109 130 -186 351q-107 305 -107 688z" />
<glyph unicode="d" horiz-adv-x="653" d="M190 0v2048q8 0 21.5 -1.5t53.5 -20t76 -53t79.5 -111t75.5 -181.5t53.5 -278t21.5 -387q0 -148 -13.5 -278t-32 -219t-47.5 -167.5t-51.5 -122t-54 -84t-43 -52t-30.5 -27.5q-26 -23 -53.5 -39.5t-41.5 -21.5zM299 229q164 304 164 787q0 159 -18 309t-44.5 251 t-53.5 166t-48 79v-1592z" />
<glyph unicode="e" horiz-adv-x="569" d="M66 1554v115q38 19 75 19q22 0 43 -7v367h240v-109h-129v-362q8 -8 20 -8q30 0 56 24t43 52v-129q-52 -35 -99 -35q-4 0 -10.5 1t-9.5 1v-1374h250v-109h-361v1577q-17 25 -43 25q-45 0 -75 -48z" />
<glyph unicode="f" horiz-adv-x="548" d="M190 0v2048h359v-109h-250v-284h131v-109h-131v-1546h-109z" />
<glyph unicode="g" horiz-adv-x="649" d="M139 1071q0 473 115 944l10 33h115l-19 -57l-1 -4q-11 -43 -23.5 -98.5t-35.5 -182.5t-37.5 -295t-14.5 -340q0 -209 9.5 -379.5t25 -280t36 -184t41 -106t41.5 -31.5q92 0 97 479h-162v109h272v-53q0 -127 -5 -220.5t-19.5 -176.5t-38.5 -135t-63 -81.5t-93 -29.5 q-52 0 -93.5 51t-68 142t-45 197t-27.5 236.5t-12.5 239t-3.5 223.5z" />
<glyph unicode="h" horiz-adv-x="757" d="M190 0v2048h109v-1352h164v1352h108v-2048h-108v588h-164v-588h-109z" />
<glyph unicode="i" horiz-adv-x="477" d="M190 0v2048h109v-2048h-109z" />
<glyph unicode="j" horiz-adv-x="575" d="M35 635h108q0 -209 22.5 -375t53.5 -166q33 0 55.5 165.5t22.5 375.5v1304h-121v109h230v-1413q0 -143 -17 -305q-8 -71 -18.5 -124.5t-29 -108.5t-49.5 -85t-73 -30q-41 0 -71.5 30t-49 85t-29 108.5t-18.5 124.5q-16 152 -16 305z" />
<glyph unicode="k" horiz-adv-x="759" d="M190 0v2048h109v-319l229 339v-198l-84 -121q28 -28 52.5 -64t50.5 -92t41.5 -135.5t15.5 -171.5v-1286h-108v1286q0 230 -115 365l-82 -121v-1530h-109z" />
<glyph unicode="l" horiz-adv-x="548" d="M190 0v2048h109v-1939h250v-109h-359z" />
<glyph unicode="m" horiz-adv-x="854" d="M190 0v2048h89l151 -1427l154 1427h86v-2048h-109l2 961l-131 -979l-135 976l4 -958h-111z" />
<glyph unicode="n" horiz-adv-x="747" d="M190 0v2048h70l193 -1264v1264h108v-2048h-86l-174 1180v-1180h-111z" />
<glyph unicode="o" horiz-adv-x="659" d="M150 899q0 428 24 700q21 237 58 352t98 115t97.5 -114.5t57.5 -352.5q25 -284 25 -700q0 -282 -11.5 -465.5t-36 -280.5t-55.5 -133t-77 -36t-77 36t-55.5 133t-36 280.5t-11.5 465.5zM258 899q0 -809 76 -809q18 0 32 68t24.5 261.5t10.5 498.5q-2 357 -14.5 598 t-27 328t-29.5 87q-20 0 -36 -110t-26 -348.5t-10 -573.5z" />
<glyph unicode="p" horiz-adv-x="684" d="M31 588l2 45q3 54 47.5 89.5t95.5 35.5q21 0 57 -8v1298q12 2 33 4q4 1 10 1q21 0 60 -7q49 -8 84 -33q176 -132 176 -653q2 -7 2 -26q0 -15 -2 -38q-2 -52 -3.5 -119.5t-14 -149t-29 -155t-49 -137t-74.5 -94.5q-42 -30 -84 -33v-608h-109v633q-40 16 -57 16 q-32 0 -35 -26l-2 -35h-108zM342 719q12 4 18 10q47 34 77.5 150.5t40.5 240.5q9 103 9 201v37q0 145 -13 255t-35 171t-41.5 92t-41.5 47l-14 8v-1212z" />
<glyph unicode="q" horiz-adv-x="657" d="M150 915q0 429 24 701q21 234 57.5 342t98.5 108t98 -108t57 -342q23 -290 23 -701q0 -561 -47 -753q0 -9 4 -21q6 -30 18.5 -51t24.5 -24q6 -2 17.5 -2t19.5 1l8 1v-129h-45q-71 0 -113 69q-29 -26 -65 -26q-46 0 -77 39t-55.5 140t-36 287.5t-11.5 468.5zM258 915 q0 -346 18 -536q37 -5 52 -12q24 -8 49 -33q22 191 22 581q0 446 -19 731t-50 285q-19 0 -35.5 -129t-26.5 -363.5t-10 -523.5zM291 258q20 -145 35 -145q11 0 22 49q-22 79 -57 96z" />
<glyph unicode="r" horiz-adv-x="835" d="M190 0v2064l58 -18q19 -6 41 -15.5t61 -35t74 -58t73.5 -88t66 -122t45.5 -162.5t18 -207q0 -270 -38 -433.5t-87 -244.5q36 -37 71 -84t80 -125.5t79 -189t46 -234.5l4 -47h-108l-4 39q-11 109 -43 210t-65 162.5t-75 117t-58.5 71.5t-30.5 28l-1 1l-49 37l43 43l1 2 q10 13 19 29t30.5 70.5t36.5 120t27.5 180t12.5 247.5q0 374 -219 536v-1894h-109z" />
<glyph unicode="s" horiz-adv-x="503" d="M59 1366q0 156 37.5 267t102.5 214q68 110 137 162l72 59v-141l-19 -16q-24 -22 -46.5 -47.5t-56.5 -77t-58 -108t-42 -139.5t-18 -173q0 -76 9 -138.5t30.5 -120t35.5 -87.5t46 -90q29 -54 44.5 -86.5t36 -86.5t29.5 -112.5t9 -126.5q0 -147 -41 -248t-93 -159 q-58 -67 -131 -103l-61 -26v118l22 11q16 9 33.5 21t49 46t54 76t40.5 112t18 152q0 59 -7.5 108t-25.5 96.5t-31.5 76t-41.5 80.5q-33 60 -50 96.5t-40 99t-33.5 134t-10.5 157.5z" />
<glyph unicode="t" horiz-adv-x="454" d="M49 1939v109h359v-109h-125v-1939h-109v1939h-125z" />
<glyph unicode="u" horiz-adv-x="716" d="M182 678v1370h109v-1370q0 -588 71 -588q70 0 70 588v1370h109v-1370q0 -92 -1 -154.5t-3.5 -135.5t-8 -121t-14 -98.5t-22 -81t-31.5 -56.5t-43 -37.5t-56 -11.5q-32 0 -57 11t-43.5 37.5t-32 56.5t-22 82t-14 98t-8 121t-3 135.5t-0.5 154.5z" />
<glyph unicode="v" horiz-adv-x="550" d="M80 2048h108l86 -1210l80 1210h111l-146 -2048h-86z" />
<glyph unicode="w" horiz-adv-x="854" d="M190 0v2048h109l-2 -958l131 976l135 -976l-2 958h109v-2048h-88l-152 1427l-151 -1427h-89z" />
<glyph unicode="x" horiz-adv-x="747" d="M156 0l163 1026l-163 1022h110l109 -678l108 678h109l-162 -1022l164 -1026h-111l-108 680l-109 -680h-110z" />
<glyph unicode="y" horiz-adv-x="528" d="M92 0l244 1655l-209 393h123l112 -211l31 211h111l-301 -2048h-111z" />
<glyph unicode="z" horiz-adv-x="552" d="M57 0l305 1939h-241v109h368l-305 -1939h285v-109h-412z" />
<glyph unicode="{" horiz-adv-x="425" d="M23 1092q98 25 127 55q6 7 7 17.5t0 18t-4 18.5l-3 11q-130 628 67 854l74 80v-157q-4 -2 -9.5 -7.5t-20.5 -30t-26 -58t-20.5 -96t-9.5 -139t12.5 -192.5t40.5 -252q29 -110 -47 -124q37 -18 45 -53.5t2 -86.5q-34 -121 -50.5 -228.5t-15.5 -183t9.5 -138.5t24 -101.5 t30 -65.5t24.5 -38l11 -11v-176q-41 43 -78 98q-21 31 -40 69.5t-42.5 118t-33 168t2 218.5t50.5 270q15 60 2 76q-24 24 -129 66z" />
<glyph unicode="}" horiz-adv-x="434" d="M143 20v177q4 4 11 11.5t24.5 37t31 66.5t24 101.5t10.5 138.5t-16 182t-50 229q-10 38 -1 79.5t46 59.5q-76 14 -47 125q28 136 41 251.5t11.5 192.5t-9 138.5t-21 96t-25.5 57.5t-21 31l-9 7v158q47 -45 76 -80q195 -232 66 -854q0 -1 -2 -8.5t-3 -13.5t-2 -14.5 t1.5 -16t7.5 -13.5q30 -32 123 -55q-1 0 -19.5 -7.5t-37 -16t-39 -20.5t-29.5 -22q-15 -18 2 -75q38 -140 49 -270t1.5 -218.5t-33.5 -168t-43 -118t-40 -69.5q-16 -24 -35.5 -49t-31.5 -38z" />
<glyph unicode="~" horiz-adv-x="552" d="M92 1063v115q36 18 76 18q21 0 40 -6.5t30 -12t25.5 -21t17.5 -19.5t16 -21q15 -23 24 -31t21 -8q53 0 98 76v-129q-53 -35 -98 -35q-23 0 -41.5 6.5t-34 21.5t-21.5 22.5t-20 27.5q-19 26 -29.5 34.5t-27.5 8.5q-25 0 -45.5 -15.5t-30.5 -31.5z" />
<glyph unicode="&#xa2;" horiz-adv-x="552" d="M80 1096q0 638 254 938l12 14h143q-5 -4 -13 -11t-31.5 -30t-44.5 -48t-45.5 -63.5t-41.5 -76.5q-125 -292 -125 -723q0 -427 131 -731q57 -133 123 -218l9 -12v-153q-43 38 -76 73l-2 2q-109 130 -186 351q-107 305 -107 688z" />
<glyph unicode="&#xa3;" horiz-adv-x="651" d="M39 621v141q46 22 108 22q28 0 68 -8v910q-1 77 1 126t19.5 112t51.5 97q45 45 112 45q83 0 133 -53q54 -56 54 -143h-109v2q0 43 -22 67q-21 21 -52 21q-24 0 -47 -23q-15 -19 -22.5 -67.5t-8.5 -82t-1 -99.5v-981q1 0 2 -2t2 -3q37 -34 56 -42q20 -7 46 -7 q102 0 131 43v-118q-54 -33 -131 -33q-60 0 -106 24v-460h262v-109h-371v657q-30 19 -68 19q-77 0 -108 -55z" />
<glyph unicode="&#xa5;" horiz-adv-x="657" d="M59 1274v141q48 23 109 23q60 0 108 -25v78l-6 6q-25 27 -45 38t-57 11q-85 0 -109 -43v129q48 23 109 23q41 0 74 -10l-168 403h119l139 -336l139 336h117l-201 -489v-17q26 -16 64 -16q88 0 131 65v-143q-60 -33 -131 -33q-28 0 -64 8v-100q26 -16 64 -16q103 0 131 45 v-121q-60 -33 -131 -33q-28 0 -64 8v-1206h-111v1274l-6 6q-18 18 -28 26.5t-29.5 15.5t-44.5 7q-78 0 -109 -55z" />
<glyph unicode="&#xa9;" horiz-adv-x="958" d="M131 1597q0 145 101.5 247t246.5 102t246.5 -102t101.5 -247t-101.5 -246.5t-246.5 -101.5t-246.5 101.5t-101.5 246.5zM188 1597q0 -121 85.5 -206.5t205.5 -85.5q122 0 207.5 85.5t85.5 206.5q0 120 -86 205.5t-207 85.5q-120 0 -205.5 -85.5t-85.5 -205.5zM236 1597 q0 100 71.5 172t171.5 72q57 0 107 -24l6 -5v-67l-17 10q-49 27 -96 27q-75 0 -129.5 -55t-54.5 -130q0 -76 54.5 -130t129.5 -54q53 0 96 27l17 10v-70l-6 -2q-50 -24 -107 -24q-100 0 -171.5 71t-71.5 172z" />
<glyph unicode="&#xad;" d="M190 1036v109h273v-109h-273z" />
<glyph unicode="&#xae;" horiz-adv-x="958" d="M131 1597q0 145 101.5 247t246.5 102t246.5 -102t101.5 -247t-101.5 -246.5t-246.5 -101.5t-246.5 101.5t-101.5 246.5zM188 1597q0 -121 85.5 -206.5t205.5 -85.5q122 0 207.5 85.5t85.5 206.5q0 120 -86 205.5t-207 85.5q-120 0 -205.5 -85.5t-85.5 -205.5zM344 1382 v424l23 2q8 4 53 4q116 0 172 -49q49 -43 49 -112q0 -85 -55 -129q-1 0 -2 -1t-2 -1q55 -43 61 -111l4 -25l-55 -4l-2 25q-3 30 -21.5 53t-34 31t-20.5 8l-74 41l80 12q3 0 9 1.5t16.5 8t19.5 16.5t16 30t7 45q0 43 -31 71q-42 37 -135 37q-4 0 -12.5 -1t-12.5 -1v-375h-53z " />
<glyph unicode="&#xbf;" horiz-adv-x="806" d="M14 733q0 99 26.5 187t67 150.5t98 116t111.5 87.5t116 62t102 41t79 22v278h109v-368l-47 -9q-7 0 -42.5 -8t-107 -34.5t-133.5 -63.5q-270 -159 -270 -461q0 -281 244 -469q59 -45 130.5 -83t111.5 -53t71 -24l31 -10v-112l-56 16q-24 7 -57 18.5t-98 41.5t-125.5 67.5 t-128.5 98.5t-117.5 131.5t-82 169t-32.5 208.5zM586 1960q0 37 24 62.5t58 25.5t58 -25.5t24 -62.5q0 -35 -24 -60.5t-58 -25.5t-58 25.5t-24 60.5z" />
<glyph unicode="&#xc0;" horiz-adv-x="1628" d="M57 0l750 2044l772 -2044h-117l-213 592h-870l-207 -592h-115zM416 700h794l-401 1053zM672 2290h114l84 -222h-116z" />
<glyph unicode="&#xc1;" horiz-adv-x="1626" d="M51 0l750 2044l772 -2044h-117l-213 592h-870l-207 -592h-115zM410 700h794l-401 1053zM739 2068l82 222h117l-84 -222h-115z" />
<glyph unicode="&#xc2;" horiz-adv-x="1632" d="M57 0l750 2044l772 -2044h-117l-213 592h-870l-207 -592h-115zM416 700h794l-401 1053zM618 2068l187 250l188 -250h-131l-57 76l-55 -76h-132z" />
<glyph unicode="&#xc3;" horiz-adv-x="1634" d="M57 0l750 2044l772 -2044h-117l-213 592h-870l-207 -592h-115zM416 700h794l-401 1053zM639 2140v109q33 20 74 20q33 0 60.5 -15t39 -29t25.5 -36q16 -23 23.5 -30t19.5 -7q29 0 54.5 23.5t41.5 50.5v-125q-50 -33 -96 -33q-65 0 -113 74q-16 24 -26.5 32.5t-28.5 8.5 q-43 0 -74 -43z" />
<glyph unicode="&#xc4;" horiz-adv-x="1695" d="M84 0h115l207 592h870l213 -592h117l-772 2052zM123 0l749 2052l773 -2052h-117l-213 592h-871l-206 -592h-115zM442 700l394 1061l401 -1061h-795zM481 700l393 1061l402 -1061h-795zM674 2224v14v15l4 8l8 16q2 2 2 4l19 15l8 6q4 0 6 2h2q16 4 25 4q8 0 14 -2 q2 0 5.5 -1t4.5 -1q2 -2 6 -2l17 -10l12 -13l6 -10l4 -8q0 -2 1 -6t1 -6q0 -1 1 -2t1 -2v-7q0 -8 -2 -12q0 -1 -1 -4.5t-1 -5.5l-4 -6q-8 -16 -27 -29q-2 0 -6 -4q-1 0 -3.5 -1t-4.5 -1l-2 -2q-8 -2 -22 -2q-17 0 -25 2q-20 7 -35 22l-6 11q0 2 -2 4zM946 2224v14q0 7 4 23 q0 2 2 4q0 1 1 4t1 4q9 12 21 21q4 4 12 8q4 0 6 2h2q16 4 25 4q10 0 22 -4q10 -2 21 -10l14 -13l4 -4q11 -18 13 -32v-7v-6q-3 -15 -11 -26l-6 -11l-4 -4l-8 -6q-5 -5 -14 -8q-9 -6 -23 -6h-8h-16l-17 6h-2q-4 4 -6 4l-6 4l-8 6l-7 9l-8 16z" />
<glyph unicode="&#xc5;" horiz-adv-x="1636" d="M59 0l750 2044l772 -2044h-117l-213 592h-870l-207 -592h-115zM418 700h794l-401 1053zM678 2210q0 59 39 100t94 41q54 0 92.5 -41.5t38.5 -99.5q0 -60 -38.5 -102t-92.5 -42q-55 0 -94 42t-39 102zM762 2210q0 -25 14.5 -42.5t34.5 -17.5q19 0 33 17.5t14 42.5 q0 23 -14 40t-33 17q-20 0 -34.5 -17t-14.5 -40z" />
<glyph unicode="&#xc6;" horiz-adv-x="2699" d="M106 0l748 2066l461 -1220v1202h1210v-109h-1100v-1191q38 -11 76 -29.5t60 -33t55 -38.5q28 -20 44 -30.5t38 -19.5t41 -9q38 0 75.5 16.5t67 44t46 46t30.5 38.5v-133q-106 -98 -219 -98q-33 0 -66 12.5t-53 25.5t-55 38q-82 58 -140 77v-104l162 -442h1069v-109h-1145 l-213 592h-870l-207 -592h-115zM465 700h795l-404 1041z" />
<glyph unicode="&#xc7;" horiz-adv-x="1476" d="M90 1016q0 210 82 401t220 329t329 220t401 82h68l-2 -111l-45 2h-21q-187 0 -357.5 -73t-294 -196.5t-196.5 -294.5t-73 -359q0 -193 62 -362t179 -292q125 -132 298 -201t382 -69q64 0 129.5 20t112.5 54l70 51v-137l-19 -12q-130 -84 -293 -84q-88 0 -159 8 q2 -41 -5.5 -75t-20 -53t-27 -32.5t-24.5 -19t-15 -7.5h-1l-24 -4q-17 0 -33 13q-21 17 -22 45.5t18 54.5q28 36 68 33q3 16 8 59q-315 59 -525 281q-130 138 -200 326.5t-70 402.5z" />
<glyph unicode="&#xc8;" horiz-adv-x="1695" d="M90 539v145q93 78 240 78h12v1286h1208v-109h-1099v-1191q89 -25 190 -101q32 -23 45.5 -31.5t36.5 -18t43 -9.5q48 0 98 31t76 59.5t43 54.5v-133q-102 -98 -217 -98q-33 0 -66.5 12.5t-53 25t-56.5 38.5q-83 59 -139 77v-546h1230v-109h-1339v676h-12 q-52 0 -94.5 -12.5t-67 -28.5t-43.5 -38t-25 -34.5t-10 -23.5zM932 2290h115l83 -222h-116z" />
<glyph unicode="&#xc9;" horiz-adv-x="1695" d="M96 539v145q93 78 240 78h12v1286h1208v-109h-1099v-1191q89 -25 190 -101q32 -23 45.5 -31.5t36.5 -18t43 -9.5q48 0 98 31t76 59.5t43 54.5v-133q-102 -98 -217 -98q-33 0 -66.5 12.5t-53 25t-56.5 38.5q-83 59 -139 77v-546h1231v-109h-1340v676h-12 q-52 0 -94.5 -12.5t-67 -28.5t-43.5 -38t-25 -34.5t-10 -23.5zM684 2068l82 222h117l-84 -222h-115z" />
<glyph unicode="&#xca;" horiz-adv-x="1695" d="M90 539v145q93 78 240 78h12v1286h1208v-109h-1099v-1191q89 -25 190 -101q32 -23 45.5 -31.5t36.5 -18t43 -9.5q48 0 98 31t76 59.5t43 54.5v-133q-102 -98 -217 -98q-33 0 -66.5 12.5t-53 25t-56.5 38.5q-83 59 -139 77v-546h1230v-109h-1339v676h-12 q-52 0 -94.5 -12.5t-67 -28.5t-43.5 -38t-25 -34.5t-10 -23.5zM780 2316h131l56 -73l57 73h131l-188 -250z" />
<glyph unicode="&#xcb;" horiz-adv-x="1699" d="M98 539v145q93 78 240 78h12v1286h1209v-109h-1100v-1191q89 -25 190 -101q32 -23 45.5 -31.5t36.5 -18t43 -9.5q48 0 98 31t76 59.5t43 54.5v-133q-102 -98 -217 -98q-33 0 -66.5 12.5t-53 25t-56.5 38.5q-83 59 -139 77v-546h1231v-109h-1340v676h-12 q-52 0 -94.5 -12.5t-67 -28.5t-43.5 -38t-25 -34.5t-10 -23.5zM762 2136q0 28 21.5 48t52.5 20t52 -20t21 -48t-21 -48t-52 -20t-52.5 20t-21.5 48zM1016 2136q0 28 21.5 48t52.5 20t52 -20t21 -48t-21 -48t-52 -20t-52.5 20t-21.5 48z" />
<glyph unicode="&#xcc;" horiz-adv-x="487" d="M0 2296h109l208 -230h-108zM209 0v2048h108v-2048h-108z" />
<glyph unicode="&#xcd;" horiz-adv-x="495" d="M178 0v2048h109v-2048h-109zM178 2066l209 230h109l-209 -230h-109z" />
<glyph unicode="&#xce;" horiz-adv-x="483" d="M2 2146l197 262l196 -262h-137l-59 78l-58 -78h-139zM225 0v2046h109v-2046h-109z" />
<glyph unicode="&#xcf;" horiz-adv-x="512" d="M0 2238v15l4 8q0 2 2 4l8 16l15 13q2 2 4 2q5 5 14 8h2q4 2 8 2q1 0 3 1t3 1h11q8 0 14 -2q4 0 8 -2h2l23 -12l12 -13l2 -4l6 -10q1 -1 2 -4.5t2 -5.5v-6q0 -1 1 -2t1 -2v-7q0 -3 -1 -8.5t-1 -7.5l-6 -12v-2l-4 -6l-8 -11l-8 -6q-12 -10 -37 -14h-8h-11h-6q-27 8 -39 20 q0 4 -4 4q0 1 -3.5 6t-4.5 9q-6 12 -6 28zM242 0v2046h108v-2046h-108zM272 2238v7v8q2 10 13 24q2 2 2 4l14 13q12 8 18 10h3q4 2 8 2q1 0 3 1t3 1h10q10 0 14 -2q18 -3 33 -14l10 -11q6 -6 13 -20q4 -16 4 -23q0 -10 -2 -14q-4 -12 -8 -18q-8 -15 -19 -21l-4 -4l-18 -8 q-5 0 -9 -2h-6h-8h-10q-9 0 -17 4q-4 0 -6 2h-2q-4 4 -6 4l-14 10l-6 9q-7 7 -11 22q-2 4 -2 16z" />
<glyph unicode="&#xd1;" horiz-adv-x="1693" d="M168 0v2146l1241 -1939v1843h111v-2224l-1244 1946v-1772h-108zM674 2140v109q33 20 74 20q12 0 22.5 -1.5t20 -5.5t16.5 -7t15 -9.5t12.5 -10t11.5 -12t9.5 -11.5t9 -12t7.5 -11q16 -23 23.5 -30t19.5 -7q29 0 55 24t40 50v-125q-46 -33 -95 -33q-29 0 -53 13.5 t-34.5 26.5t-24.5 34q-19 26 -28.5 33.5t-26.5 7.5q-43 0 -74 -43z" />
<glyph unicode="&#xd2;" horiz-adv-x="2314" d="M102 1012q0 214 83.5 409.5t225 337t337.5 225.5t411 84q214 0 410 -84t337.5 -225.5t225.5 -337t84 -409.5q0 -215 -84 -406.5t-226 -327.5t-337 -215t-410 -79q-144 0 -281 36t-253 100.5t-213.5 158.5t-165.5 206.5t-106 247.5t-38 279zM211 1012q0 -154 48 -295.5 t135.5 -254t204.5 -196.5t261.5 -129t298.5 -45q193 0 367.5 71t301.5 192.5t202 293t75 363.5t-75 367.5t-201.5 302t-302 201.5t-367.5 75t-367.5 -75t-302.5 -201.5t-202.5 -302t-75.5 -367.5zM993 2372h115l84 -222h-117z" />
<glyph unicode="&#xd3;" horiz-adv-x="2314" d="M100 1012q0 214 83.5 409.5t225 337t337.5 225.5t411 84q214 0 410 -84t337.5 -225.5t225.5 -337t84 -409.5q0 -215 -84 -406.5t-226 -327.5t-337 -215t-410 -79q-144 0 -281 36t-253 100.5t-213.5 158.5t-165.5 206.5t-106 247.5t-38 279zM209 1012q0 -154 48 -295.5 t135.5 -254t204.5 -196.5t261.5 -129t298.5 -45q193 0 367.5 71t301.5 192.5t202 293t75 363.5t-75 367.5t-201.5 302t-302 201.5t-367.5 75t-367.5 -75t-302.5 -201.5t-202.5 -302t-75.5 -367.5zM1069 2150l84 222h115l-82 -222h-117z" />
<glyph unicode="&#xd4;" horiz-adv-x="2312" d="M100 1012q0 214 83.5 409.5t225 337t337.5 225.5t411 84q214 0 410 -84t337.5 -225.5t225.5 -337t84 -409.5q0 -215 -84 -406.5t-226 -327.5t-337 -215t-410 -79q-144 0 -281 36t-253 100.5t-213.5 158.5t-165.5 206.5t-106 247.5t-38 279zM209 1012q0 -154 48 -295.5 t135.5 -254t204.5 -196.5t261.5 -129t298.5 -45q193 0 367.5 71t301.5 192.5t202 293t75 363.5t-75 367.5t-201.5 302t-302 201.5t-367.5 75t-367.5 -75t-302.5 -201.5t-202.5 -302t-75.5 -367.5zM936 2146l197 262l196 -262h-137l-59 78l-58 -78h-139z" />
<glyph unicode="&#xd5;" horiz-adv-x="2324" d="M106 1012q0 214 83.5 409.5t225 337t337.5 225.5t411 84q214 0 410 -84t337.5 -225.5t225.5 -337t84 -409.5q0 -215 -84 -406.5t-226 -327.5t-337 -215t-410 -79q-144 0 -281 36t-253 100.5t-213.5 158.5t-165.5 206.5t-106 247.5t-38 279zM215 1012q0 -154 48 -295.5 t135.5 -254t204.5 -196.5t261.5 -129t298.5 -45q193 0 367.5 71t301.5 192.5t202 293t75 363.5t-75 367.5t-201.5 302t-302 201.5t-367.5 75t-367.5 -75t-302.5 -201.5t-202.5 -302t-75.5 -367.5zM956 2202v108q35 21 74 21q11 0 20.5 -1.5t17.5 -3.5t16.5 -6.5t14 -7.5 t12.5 -9.5t10.5 -9.5t10 -11t8.5 -10.5t8 -11t7 -9.5q16 -23 23.5 -30t19.5 -7q29 0 54.5 24t39.5 50v-125q-46 -33 -94 -33q-29 0 -53 13.5t-35 26.5t-25 34q-19 26 -28.5 33.5t-26.5 7.5q-43 0 -74 -43z" />
<glyph unicode="&#xd6;" horiz-adv-x="2336" d="M113 1012q0 214 83.5 409.5t225 337t337 225.5t410.5 84q214 0 410 -84t337.5 -225.5t225.5 -337t84 -409.5q0 -215 -84 -406.5t-226 -327.5t-337 -215t-410 -79q-173 0 -333.5 50.5t-291 144t-227.5 219t-150.5 284t-53.5 330.5zM221 1012q0 -154 48 -295.5t135.5 -254 t204.5 -196.5t261.5 -129t298.5 -45q193 0 367.5 71t302 192.5t202.5 293t75 363.5q0 154 -48 298.5t-135.5 260.5t-204 203.5t-261 135.5t-298.5 48q-192 0 -367.5 -75t-302.5 -201.5t-202.5 -302t-75.5 -367.5zM938 2198q0 28 21.5 47.5t52.5 19.5t52 -19.5t21 -47.5 t-21 -48t-52 -20t-52.5 20t-21.5 48zM1192 2198q0 28 21.5 47.5t52.5 19.5t52 -19.5t21 -47.5t-21 -48t-52 -20t-52.5 20t-21.5 48z" />
<glyph unicode="&#xd7;" horiz-adv-x="751" d="M145 825l164 265l-145 237h127l84 -133l82 133h127l-23 -37l-123 -200l164 -265h-127l-100 162l-103 -162h-127z" />
<glyph unicode="&#xd9;" horiz-adv-x="1591" d="M137 1016v1032h109v-1032q0 -926 555 -926q96 0 176 29.5t136.5 80t100 123t70.5 151.5t44 174t23.5 183.5t6.5 184.5v1032h108v-1032q0 -507 -169 -770.5t-496 -263.5q-69 0 -132.5 12t-131.5 44t-125 82t-109 131t-88 186t-57 253t-21 326zM600 2372h115l84 -222h-117z " />
<glyph unicode="&#xda;" horiz-adv-x="1591" d="M133 1016v1032h109v-1032q0 -926 555 -926q96 0 176 29.5t136.5 80t100 123t70.5 151.5t44 174t23.5 183.5t6.5 184.5v1032h108v-1032q0 -507 -169 -770.5t-496 -263.5q-69 0 -132.5 12t-131.5 44t-125 82t-109 131t-88 186t-57 253t-21 326zM678 2150l84 222h115 l-82 -222h-117z" />
<glyph unicode="&#xdb;" horiz-adv-x="1587" d="M133 1016v1032h109v-1032q0 -926 555 -926q96 0 176 29.5t136.5 80t100 123t70.5 151.5t44 174t23.5 183.5t6.5 184.5v1032h108v-1032q0 -507 -169 -770.5t-496 -263.5q-69 0 -132.5 12t-131.5 44t-125 82t-109 131t-88 186t-57 253t-21 326zM539 2146l196 262l197 -262 h-137l-60 78l-57 -78h-139z" />
<glyph unicode="&#xdc;" horiz-adv-x="1646" d="M160 1016v1032h108v-1032q0 -926 555 -926q96 0 176 29.5t136.5 80t100 123t70.5 151.5t44 174t23.5 183.5t6.5 184.5v1032h109v-1032q0 -507 -169.5 -770.5t-496.5 -263.5q-69 0 -132.5 12t-131.5 44t-124.5 82t-108.5 131t-88 186t-57 253t-21 326zM559 2136 q0 28 21.5 48t52.5 20t52.5 -20t21.5 -48t-21.5 -48t-52.5 -20t-52.5 20t-21.5 48zM813 2136q0 28 21.5 48t52.5 20t52.5 -20t21.5 -48t-21.5 -48t-52.5 -20t-52.5 20t-21.5 48z" />
<glyph unicode="&#xdd;" horiz-adv-x="1478" d="M31 2048h119l593 -1305l582 1305h119l-647 -1448v-600h-109v600zM721 2150l84 222h115l-82 -222h-117z" />
<glyph unicode="&#xe0;" horiz-adv-x="626" d="M74 0l198 2048h88l203 -2048h-110l-58 588h-155l-58 -588h-108zM211 2290h86l82 -222h-86zM250 696h133l-68 684z" />
<glyph unicode="&#xe1;" horiz-adv-x="636" d="M63 0l199 2048h88l203 -2048h-111l-57 588h-156l-57 -588h-109zM240 696h133l-68 684zM287 2068l82 222h86l-82 -222h-86z" />
<glyph unicode="&#xe2;" horiz-adv-x="657" d="M78 0l198 2048h89l202 -2048h-110l-58 588h-155l-58 -588h-108zM156 2068l186 250l188 -250h-131l-57 76l-55 -76h-131zM254 696h133l-68 684z" />
<glyph unicode="&#xe3;" horiz-adv-x="669" d="M82 0l199 2048h88l202 -2048h-110l-58 588h-155l-58 -588h-108zM182 2140v109q33 20 74 20q33 0 60.5 -15t39 -29t25.5 -36q16 -23 23.5 -30t19.5 -7q29 0 54.5 23.5t41.5 50.5v-125q-50 -33 -96 -33q-65 0 -113 74q-16 24 -26.5 32.5t-28.5 8.5q-43 0 -74 -43zM258 696 h133l-67 684z" />
<glyph unicode="&#xe4;" horiz-adv-x="632" d="M72 0l198 2048h88l203 -2048h-110l-58 588h-155l-58 -588h-108zM123 2238v15l4 8q0 2 2 4l8 16l15 13q2 2 4 2q5 5 14 8h2q4 2 8 2q1 0 3 1t3 1h11q8 0 14 -2q4 0 8 -2h2l23 -12l12 -13l2 -4l6 -10q1 -1 2 -4.5t2 -5.5v-6q0 -1 1 -2t1 -2v-7q0 -3 -1 -8.5t-1 -7.5l-6 -12 v-2l-4 -6l-8 -11l-8 -6q-12 -10 -37 -14h-8h-11h-6q-27 8 -39 20q0 4 -4 4q0 1 -3.5 6t-4.5 9q-6 12 -6 28zM248 696h133l-68 684zM395 2238v7v8q2 10 13 24q2 2 2 4l14 13q12 8 18 10h2q4 2 9 2q1 0 3 1t3 1h10q10 0 14 -2q18 -3 33 -14l10 -11q6 -6 13 -20q4 -16 4 -23 q0 -10 -2 -14q-3 -9 -9 -18q-8 -16 -18 -21l-4 -4l-18 -8q-5 0 -9 -2h-6h-8h-10q-9 0 -17 4q-4 0 -6 2h-2q-4 4 -6 4l-14 10l-6 9q-7 7 -11 22q-2 4 -2 16z" />
<glyph unicode="&#xe5;" horiz-adv-x="667" d="M84 0l199 2048h88l202 -2048h-110l-57 588h-156l-57 -588h-109zM213 2210q0 59 39 100t94 41q54 0 92.5 -41.5t38.5 -99.5q0 -60 -38.5 -102t-92.5 -42q-55 0 -94 42t-39 102zM260 696h133l-67 684zM297 2210q0 -25 14.5 -42.5t34.5 -17.5q19 0 33 17.5t14 42.5 q0 23 -14 40t-33 17q-20 0 -34.5 -17t-14.5 -40z" />
<glyph unicode="&#xe6;" horiz-adv-x="944" d="M113 0l198 2048h88l35 -360q12 4 37 4q24 0 45 -6v362h240v-109h-131v-358q8 -8 22 -8q29 0 55.5 25t40.5 51v-129q-53 -35 -96 -35q-4 0 -11.5 1t-10.5 1v-1374h249v-113h-382l-58 588h-155l-58 -588h-108zM289 696h133l-68 684zM444 1599l72 -727v709q-19 25 -45 25 q-13 0 -27 -7z" />
<glyph unicode="&#xe7;" horiz-adv-x="544" d="M63 1067q0 175 22 331t51 256t69 186t66 125t51 69l12 14h141q-36 -37 -61 -74q-2 0 -18 -18.5t-46 -67.5t-55 -110q-125 -287 -125 -711q0 -423 131 -723q54 -127 119 -213l8 -12v-154q-2 -41 -13.5 -75.5t-23.5 -53.5t-29 -34.5t-22.5 -18.5t-11.5 -6q-5 -2 -12.5 -4 t-8.5 -2q-12 0 -24 6q-16 11 -14 38t22 50q24 29 94 37q16 37 6 102l-35 35q-11 11 -33 39.5t-71 119t-88 199.5t-70 289.5t-31 380.5z" />
<glyph unicode="&#xe8;" horiz-adv-x="565" d="M59 1554v115q38 19 76 19q22 0 43 -7v367h240v-109h-129v-362q8 -8 20 -8q30 0 56 24t43 52v-129q-52 -35 -99 -35q-4 0 -10.5 1t-9.5 1v-1374h250v-109h-361v1577q-17 25 -43 25q-25 0 -45.5 -15.5t-30.5 -32.5zM193 2290h114l84 -222h-117z" />
<glyph unicode="&#xe9;" horiz-adv-x="573" d="M55 1554v115q38 19 76 19q22 0 43 -7v367h240v-109h-129v-362q8 -8 20 -8q53 0 98 76v-129q-53 -35 -98 -35q-4 0 -10.5 1t-9.5 1v-1374h250v-109h-361v1577q-17 25 -43 25q-25 0 -45.5 -15.5t-30.5 -32.5zM264 2068l82 222h117l-84 -222h-115z" />
<glyph unicode="&#xea;" horiz-adv-x="583" d="M59 1554v115q38 19 76 19q22 0 43 -7v367h240v-109h-129v-362q8 -8 20 -8q30 0 56 24t43 52v-129q-52 -35 -99 -35q-4 0 -10.5 1t-9.5 1v-1374h250v-109h-361v1577q-17 25 -43 25q-25 0 -45.5 -15.5t-30.5 -32.5zM150 2316h131l55 -73l57 73h131l-188 -250z" />
<glyph unicode="&#xeb;" horiz-adv-x="587" d="M63 1554v115q38 19 76 19q22 0 43 -7v367h240v-109h-129v-362q8 -8 20 -8q30 0 56 24t43 52v-129q-53 -35 -99 -35q-4 0 -10.5 1t-9.5 1v-1374h250v-109h-361v1577q-17 25 -43 25q-24 0 -45 -15.5t-31 -32.5zM135 2136q0 28 21.5 48t52.5 20t52.5 -20t21.5 -48t-21.5 -48 t-52.5 -20t-52.5 20t-21.5 48zM389 2136q0 28 21.5 48t52.5 20t52.5 -20t21.5 -48t-21.5 -48t-52.5 -20t-52.5 20t-21.5 48z" />
<glyph unicode="&#xec;" horiz-adv-x="487" d="M0 2296h109l208 -230h-108zM209 0v2048h108v-2048h-108z" />
<glyph unicode="&#xed;" horiz-adv-x="495" d="M178 0v2048h109v-2048h-109zM178 2066l209 230h109l-209 -230h-109z" />
<glyph unicode="&#xee;" horiz-adv-x="483" d="M2 2146l197 262l196 -262h-137l-59 78l-58 -78h-139zM225 0v2046h109v-2046h-109z" />
<glyph unicode="&#xef;" horiz-adv-x="512" d="M0 2238v15l4 8q0 2 2 4l8 16l15 13q2 2 4 2q5 5 14 8h2q4 2 8 2q1 0 3 1t3 1h11q8 0 14 -2q4 0 8 -2h2l23 -12l12 -13l2 -4l6 -10q1 -1 2 -4.5t2 -5.5v-6q0 -1 1 -2t1 -2v-7q0 -3 -1 -8.5t-1 -7.5l-6 -12v-2l-4 -6l-8 -11l-8 -6q-12 -10 -37 -14h-8h-11h-6q-27 8 -39 20 q0 4 -4 4q0 1 -3.5 6t-4.5 9q-6 12 -6 28zM242 0v2046h108v-2046h-108zM272 2238v7v8q2 10 13 24q2 2 2 4l14 13q12 8 18 10h3q4 2 8 2q1 0 3 1t3 1h10q10 0 14 -2q18 -3 33 -14l10 -11q6 -6 13 -20q4 -16 4 -23q0 -10 -2 -14q-4 -12 -8 -18q-8 -15 -19 -21l-4 -4l-18 -8 q-5 0 -9 -2h-6h-8h-10q-9 0 -17 4q-4 0 -6 2h-2q-4 4 -6 4l-14 10l-6 9q-7 7 -11 22q-2 4 -2 16z" />
<glyph unicode="&#xf1;" horiz-adv-x="712" d="M100 2140v109q33 20 74 20q11 0 20.5 -1.5t17.5 -3.5t16.5 -6.5t14 -7.5t12.5 -9.5t10.5 -9.5t10 -11t8.5 -10.5t8 -11t7 -9.5q16 -23 23.5 -30t19.5 -7q29 0 54.5 24t39.5 50v-125q-46 -33 -94 -33q-29 0 -53 13.5t-35 26.5t-25 34q-19 26 -28.5 33.5t-26.5 7.5 q-43 0 -74 -43zM172 0v2048h70l192 -1264v1264h109v-2048h-86l-174 1180v-1180h-111z" />
<glyph unicode="&#xf2;" horiz-adv-x="608" d="M133 2372h115l84 -222h-117zM137 899q0 416 25 700q21 238 57.5 352.5t97.5 114.5t98 -115t58 -352q25 -284 25 -700q0 -282 -11.5 -465.5t-36.5 -280.5t-56 -133t-77 -36t-77 36t-55.5 133t-36 280.5t-11.5 465.5zM246 899q0 -809 76 -809q18 0 32 68t24.5 261.5 t10.5 498.5q-2 357 -14.5 598t-27.5 328t-30 87q-20 0 -35.5 -110t-25.5 -348t-10 -574z" />
<glyph unicode="&#xf3;" horiz-adv-x="606" d="M125 899q0 416 25 700q21 238 57.5 352.5t97.5 114.5t98 -115t58 -352q24 -272 24 -700q0 -282 -11.5 -465.5t-36 -280.5t-55.5 -133t-77 -36t-77 36t-55.5 133t-36 280.5t-11.5 465.5zM199 2150l84 222h114l-82 -222h-116zM233 899q0 -809 76 -809q18 0 32.5 68t25 262 t10.5 498q-2 357 -14.5 598t-27.5 328t-30 87q-20 0 -36 -110t-26 -348.5t-10 -573.5z" />
<glyph unicode="&#xf4;" horiz-adv-x="622" d="M70 2146l196 262l197 -262h-137l-60 78l-57 -78h-139zM133 899q0 416 25 700q21 238 57.5 352.5t97.5 114.5t98 -115t58 -352q25 -284 25 -700q0 -282 -11.5 -465.5t-36.5 -280.5t-56 -133t-77 -36t-77 36t-55.5 133t-36 280.5t-11.5 465.5zM242 899q0 -301 9.5 -485 t25.5 -254t40 -70q18 0 32.5 68t25 262t10.5 498q-2 357 -14.5 598t-27.5 328t-30 87q-20 0 -35.5 -110t-25.5 -348t-10 -574z" />
<glyph unicode="&#xf5;" horiz-adv-x="628" d="M102 2202v108q35 21 74 21q11 0 20.5 -1.5t17.5 -3.5t16.5 -6.5t14 -7.5t12.5 -9.5t10.5 -9.5t10 -11t8.5 -10.5t8 -11t7 -9.5q16 -23 23.5 -30t19.5 -7q29 0 54.5 24t39.5 50v-125q-46 -33 -94 -33q-29 0 -53 13.5t-35 26.5t-25 34q-19 26 -28.5 33.5t-26.5 7.5 q-43 0 -74 -43zM133 899q0 416 25 700q21 238 57.5 352.5t97.5 114.5t98 -115t58 -352q25 -284 25 -700q0 -282 -11.5 -465.5t-36.5 -280.5t-56 -133t-77 -36t-77 36t-55.5 133t-36 280.5t-11.5 465.5zM242 899q0 -301 9.5 -485t25.5 -254t40 -70q18 0 32.5 68t25 262 t10.5 498q-2 357 -14.5 598t-27.5 328t-30 87q-20 0 -35.5 -110t-25.5 -348t-10 -574z" />
<glyph unicode="&#xf6;" d="M74 2198q0 28 21 47.5t52 19.5t52.5 -19.5t21.5 -47.5t-21.5 -48t-52.5 -20t-52 20t-21 48zM141 899q0 416 25 700q21 237 58 352t98 115t97.5 -114.5t57.5 -352.5q25 -284 25 -700q0 -282 -11.5 -465.5t-36 -280.5t-55.5 -133t-77 -36t-77 36t-56 133t-36.5 280.5 t-11.5 465.5zM250 899q0 -809 76 -809q18 0 32 68t24.5 261.5t10.5 498.5q-2 357 -14.5 598t-27 328t-29.5 87q-20 0 -36 -110t-26 -348.5t-10 -573.5zM328 2198q0 28 21 47.5t52 19.5t52.5 -19.5t21.5 -47.5t-21.5 -48t-52.5 -20t-52 20t-21 48z" />
<glyph unicode="&#xf9;" horiz-adv-x="651" d="M117 2372h114l84 -222h-116zM160 678v1370h108v-1370q0 -588 72 -588q70 0 70 588v1370h108v-1370q0 -93 -1 -155t-3.5 -135.5t-7.5 -120.5t-14 -98t-22 -81.5t-31 -56.5t-43 -37.5t-56 -11.5q-32 0 -57 11t-43.5 37.5t-32 56.5t-22 82t-14 98t-8 121t-3 135.5 t-0.5 154.5z" />
<glyph unicode="&#xfa;" horiz-adv-x="659" d="M160 678v1370h108v-1370q0 -588 72 -588q70 0 70 588v1370h108v-1370q0 -93 -1 -155t-3.5 -135.5t-7.5 -120.5t-14 -98t-22 -81.5t-31 -56.5t-43 -37.5t-56 -11.5q-32 0 -57 11t-43.5 37.5t-32 56.5t-22 82t-14 98t-8 121t-3 135.5t-0.5 154.5zM201 2150l84 222h114 l-82 -222h-116z" />
<glyph unicode="&#xfb;" horiz-adv-x="667" d="M63 2146l197 262l197 -262h-138l-59 78l-57 -78h-140zM162 678v1370h108v-1370q0 -588 72 -588q70 0 70 588v1370h108v-1370q0 -93 -1 -155t-3.5 -135.5t-7.5 -120.5t-14 -98t-22 -81.5t-31 -56.5t-43 -37.5t-56 -11.5q-32 0 -57 11t-43.5 37.5t-32 56.5t-22 82t-14 98 t-8 121t-3 135.5t-0.5 154.5z" />
<glyph unicode="&#xfc;" horiz-adv-x="704" d="M70 2136q0 28 21 48t52 20t52.5 -20t21.5 -48t-21.5 -48t-52.5 -20t-52 20t-21 48zM172 678v1370h109v-1370q0 -588 71 -588q70 0 70 588v1370h108v-1370q0 -93 -1 -155t-3.5 -135.5t-7.5 -120.5t-14 -98t-22 -81.5t-31 -56.5t-43 -37.5t-56 -11.5q-32 0 -57 11 t-43.5 37.5t-32 56.5t-22 82t-14 98t-8 121t-3 135.5t-0.5 154.5zM324 2136q0 28 21 48t52 20t52.5 -20t21.5 -48t-21.5 -48t-52.5 -20t-52 20t-21 48z" />
<glyph unicode="&#xfd;" horiz-adv-x="479" d="M41 0l244 1655l-209 393h123l112 -211l31 211h111l-301 -2048h-111zM229 2150l84 222h115l-82 -222h-117z" />
<glyph unicode="&#xff;" horiz-adv-x="573" d="M117 0l243 1655l-208 393h122l113 -211l31 211h110l-301 -2048h-110zM150 2136q0 28 21 48t52 20t52.5 -20t21.5 -48t-21.5 -48t-52.5 -20t-52 20t-21 48zM403 2136q0 28 21.5 48t52.5 20t52.5 -20t21.5 -48t-21.5 -48t-52.5 -20t-52.5 20t-21.5 48z" />
<glyph unicode="&#x152;" horiz-adv-x="3340" d="M147 1026q0 172 53.5 333t151 291t227.5 228t291.5 151.5t333.5 53.5q213 0 405 -80.5t337 -224.5v272h1208v-111h-1100v-288q99 -133 153 -293t54 -332q0 -181 -59 -346q23 -15 43 -31q30 -21 45.5 -31t38 -19t41.5 -9q38 0 75.5 16.5t66.5 43.5t45.5 46t29.5 37v-131 q-104 -100 -217 -100q-47 0 -85.5 19t-89.5 57l-26 18q-46 -103 -115 -197v-288h1231v-109h-1339v270q-145 -143 -337 -223t-405 -80q-172 0 -333.5 53.5t-291.5 151t-227.5 227.5t-151 291.5t-53.5 333.5zM256 1026q0 -192 75.5 -367.5t202.5 -302.5t302.5 -202.5 t367.5 -75.5t367.5 75.5t302 202.5t201.5 302.5t75 367.5t-75 367.5t-201.5 302t-302 201.5t-367.5 75t-367.5 -75t-302.5 -201.5t-202.5 -302t-75.5 -367.5z" />
<glyph unicode="&#x153;" horiz-adv-x="823" d="M166 915q0 429 24 701q20 230 56.5 331t99.5 101q43 0 72 -45v45h237v-109h-129v-362q8 -8 21 -8q53 0 98 76v-129q-53 -35 -98 -35q-4 0 -11 1t-10 1v-1374h250v-109h-358v31q-27 -31 -72 -31q-46 0 -77 36t-55.5 133t-36 280.5t-11.5 465.5zM274 915q0 -809 74 -809 q19 0 34 68t25 261.5t9 498.5q-1 356 -13.5 589t-26.5 311.5t-30 78.5q-20 0 -36 -101t-26 -331.5t-10 -565.5z" />
<glyph unicode="&#x178;" horiz-adv-x="1505" d="M45 2048h119l594 -1305l581 1305h119l-647 -1448v-600h-109v600zM598 2136q0 28 21.5 48t52.5 20t52 -20t21 -48t-21 -48t-52 -20t-52.5 20t-21.5 48zM852 2136q0 28 21.5 48t52.5 20t52 -20t21 -48t-21 -48t-52 -20t-52.5 20t-21.5 48z" />
<glyph unicode="&#x2000;" horiz-adv-x="1204" />
<glyph unicode="&#x2001;" horiz-adv-x="2408" />
<glyph unicode="&#x2002;" horiz-adv-x="1204" />
<glyph unicode="&#x2003;" horiz-adv-x="2408" />
<glyph unicode="&#x2004;" horiz-adv-x="802" />
<glyph unicode="&#x2005;" horiz-adv-x="602" />
<glyph unicode="&#x2006;" horiz-adv-x="401" />
<glyph unicode="&#x2007;" horiz-adv-x="401" />
<glyph unicode="&#x2008;" horiz-adv-x="301" />
<glyph unicode="&#x2009;" horiz-adv-x="481" />
<glyph unicode="&#x200a;" horiz-adv-x="133" />
<glyph unicode="&#x2010;" d="M190 1036v109h273v-109h-273z" />
<glyph unicode="&#x2011;" d="M190 1036v109h273v-109h-273z" />
<glyph unicode="&#x2012;" d="M190 1036v109h273v-109h-273z" />
<glyph unicode="&#x2013;" horiz-adv-x="1730" d="M190 920v108h1352v-108h-1352z" />
<glyph unicode="&#x2014;" horiz-adv-x="1886" d="M190 920v108h1506v-108h-1506z" />
<glyph unicode="&#x2022;" horiz-adv-x="514" d="M131 1090q0 57 36.5 97t88.5 40t88.5 -40t36.5 -97q0 -56 -36.5 -96t-88.5 -40t-88.5 40t-36.5 96z" />
<glyph unicode="&#x2026;" horiz-adv-x="1171" d="M178 102q0 43 27 74t65 31t65 -31t27 -74q0 -42 -27 -72t-65 -30t-65 30t-27 72zM498 102q0 43 27 74t65 31t65 -31t27 -74q0 -42 -27 -72t-65 -30t-65 30t-27 72zM811 102q0 43 27 74t65 31t65 -31t27 -74q0 -42 -27 -72t-65 -30t-65 30t-27 72z" />
<glyph unicode="&#x202f;" horiz-adv-x="481" />
<glyph unicode="&#x203a;" horiz-adv-x="1705" />
<glyph unicode="&#x205f;" horiz-adv-x="602" />
<glyph unicode="&#x20ac;" d="M25 449v141q46 22 108 22q41 0 74 -10q-12 52 -21 111q-23 10 -53 10q-83 0 -108 -45v131q53 22 108 22q6 0 18.5 -1t18.5 -1q-14 115 -14 269q0 177 22 333t51 253.5t70 182.5t65.5 120t51.5 67l12 12v-192l-39 -78q-125 -292 -125 -698q0 -157 21 -322l28 -26 q22 -20 30 -27t28 -15t45 -8q89 0 131 68v-145q-57 -31 -131 -31q-56 0 -101 20q8 -38 29 -108q31 -21 72 -21q104 0 131 43v-120q-61 -33 -131 -33q-4 0 -12.5 1t-12.5 1q0 -2 4 -10q57 -128 121 -218l10 -10v-155q-32 26 -77 75l-7 8q-6 8 -17.5 23.5t-26 37.5t-33 54 t-37 69.5t-38.5 87.5t-38 103l-16 15q-25 27 -45.5 38t-57.5 11q-77 0 -108 -55z" />
<glyph unicode="&#x2122;" horiz-adv-x="1128" d="M82 1972v76h430v-76h-176v-540h-76v540h-178zM500 1432l4 26l106 608l131 -417l119 417l125 -634h-76l-61 358l-107 -412l-112 412l-54 -358h-75z" />
<glyph unicode="&#x25fc;" horiz-adv-x="2048" d="M0 0v2048h2048v-2048h-2048z" />
</font>
</defs>
</svg>
